<svg id="Layer_1" data-name="Layer 1" xmlns="http://www.w3.org/2000/svg" xmlns:xlink="http://www.w3.org/1999/xlink" viewBox="0 0 506.55 498.65"><defs><style>.cls-1{fill:url(#linear-gradient);}.cls-2{fill:url(#linear-gradient-2);}.cls-3{fill:url(#linear-gradient-3);}.cls-4{fill:url(#linear-gradient-4);}.cls-5{fill:url(#linear-gradient-5);}.cls-6{fill:url(#linear-gradient-6);}.cls-7{fill:url(#linear-gradient-7);}.cls-8{fill:url(#linear-gradient-8);}.cls-9{fill:url(#linear-gradient-9);}.cls-10{fill:url(#linear-gradient-10);}.cls-11{fill:url(#linear-gradient-11);}.cls-12{fill:url(#linear-gradient-12);}.cls-13{fill:url(#linear-gradient-13);}.cls-14{fill:url(#linear-gradient-14);}.cls-15{fill:url(#linear-gradient-15);}.cls-16{fill:url(#linear-gradient-16);}.cls-17{fill:url(#linear-gradient-17);}.cls-18{fill:url(#linear-gradient-18);}</style><linearGradient id="linear-gradient" x1="388.22" y1="523.75" x2="511.31" y2="311.41" gradientTransform="translate(281.58 -529.97) rotate(45)" gradientUnits="userSpaceOnUse"><stop offset="0" stop-color="#ffa300"/><stop offset="1" stop-color="#00dce9"/></linearGradient><linearGradient id="linear-gradient-2" x1="370.9" y1="513.71" x2="494" y2="301.37" xlink:href="#linear-gradient"/><linearGradient id="linear-gradient-3" x1="373.42" y1="515.3" x2="496.51" y2="302.96" xlink:href="#linear-gradient"/><linearGradient id="linear-gradient-4" x1="551.61" y1="619.97" x2="674.7" y2="407.63" xlink:href="#linear-gradient"/><linearGradient id="linear-gradient-5" x1="607.65" y1="653.01" x2="730.74" y2="440.68" xlink:href="#linear-gradient"/><linearGradient id="linear-gradient-6" x1="839.8" y1="139.06" x2="636.69" y2="900.19" gradientTransform="translate(281.58 -529.97) rotate(45)" gradientUnits="userSpaceOnUse"><stop offset="0" stop-color="#faff7f"/><stop offset="1" stop-color="#ff892a"/></linearGradient><linearGradient id="linear-gradient-7" x1="499.08" y1="589" x2="622.17" y2="376.67" xlink:href="#linear-gradient"/><linearGradient id="linear-gradient-8" x1="454.68" y1="562.84" x2="577.77" y2="350.51" xlink:href="#linear-gradient"/><linearGradient id="linear-gradient-9" x1="736.56" y1="104.55" x2="531.61" y2="872.6" xlink:href="#linear-gradient-6"/><linearGradient id="linear-gradient-10" x1="803.56" y1="123.56" x2="598.61" y2="891.61" xlink:href="#linear-gradient-6"/><linearGradient id="linear-gradient-11" x1="619.34" y1="72.18" x2="414.39" y2="840.23" xlink:href="#linear-gradient-6"/><linearGradient id="linear-gradient-12" x1="532.27" y1="744.29" x2="538.42" y2="519.64" xlink:href="#linear-gradient"/><linearGradient id="linear-gradient-13" x1="528.36" y1="743" x2="534.51" y2="518.35" xlink:href="#linear-gradient"/><linearGradient id="linear-gradient-14" x1="743.88" y1="112.75" x2="540.77" y2="873.88" xlink:href="#linear-gradient-6"/><linearGradient id="linear-gradient-15" x1="639.73" y1="83.95" x2="436.62" y2="845.08" xlink:href="#linear-gradient-6"/><linearGradient id="linear-gradient-16" x1="384.06" y1="521.69" x2="507.15" y2="309.36" xlink:href="#linear-gradient"/><linearGradient id="linear-gradient-17" x1="407.19" y1="535.43" x2="530.29" y2="323.1" xlink:href="#linear-gradient"/><linearGradient id="linear-gradient-18" x1="538.51" y1="55.76" x2="335.41" y2="816.89" xlink:href="#linear-gradient-6"/></defs><polygon class="cls-1" points="428.7 39.89 467.62 0 506.55 39.89 467.62 79.78 428.7 39.89"/><polygon class="cls-2" points="350.85 39.89 389.77 0 428.7 39.89 389.77 79.78 350.85 39.89"/><polygon class="cls-3" points="292.79 58.41 331.71 18.52 370.64 58.41 331.71 98.31 292.79 58.41"/><polygon class="cls-4" points="417.91 289.22 378.98 249.33 417.91 209.44 456.83 249.33 417.91 289.22"/><polygon class="cls-5" points="381.76 366.16 342.83 326.26 381.76 286.37 420.69 326.26 381.76 366.16"/><polygon class="cls-6" points="326.15 463.04 287.23 423.15 326.15 383.25 365.08 423.15 326.15 463.04"/><polygon class="cls-7" points="409.56 178.09 448.49 138.2 487.42 178.09 448.49 217.98 409.56 178.09"/><polygon class="cls-8" points="428.7 119.68 467.62 79.78 506.55 119.68 467.62 159.57 428.7 119.68"/><rect class="cls-9" y="442.23" width="55.05" height="56.42"/><rect class="cls-10" x="139.02" y="442.23" width="55.05" height="56.42"/><rect class="cls-11" x="8.34" y="296.91" width="55.05" height="56.42"/><polygon class="cls-12" points="226.06 246.48 264.98 206.59 303.91 246.48 264.98 286.37 226.06 246.48"/><polygon class="cls-13" points="295.57 175.24 334.49 135.35 373.42 175.24 334.49 215.13 295.57 175.24"/><polygon class="cls-14" points="187.13 366.16 226.06 326.26 264.98 366.16 226.06 406.05 187.13 366.16"/><polygon class="cls-15" points="109.28 286.37 148.2 246.48 187.13 286.37 148.2 326.26 109.28 286.37"/><polygon class="cls-16" points="262.2 129.65 223.27 89.76 262.2 49.87 301.13 89.76 262.2 129.65"/><polygon class="cls-17" points="195.47 175.24 156.54 135.35 195.47 95.46 234.4 135.35 195.47 175.24"/><polygon class="cls-18" points="100.94 232.23 62.01 192.34 100.94 152.45 139.86 192.34 100.94 232.23"/></svg>